<svg width="349" height="248" viewBox="0 0 349 248" fill="none" xmlns="http://www.w3.org/2000/svg">
<rect x="29.5819" y="73.7746" width="240" height="89" rx="44.5" transform="rotate(-3.46255 29.5819 73.7746)" fill="#FFC9E1"/>
<rect x="29.5819" y="73.7746" width="240" height="89" rx="44.5" transform="rotate(-3.46255 29.5819 73.7746)" stroke="#64748B" stroke-width="8"/>
<path d="M84.5837 125.547L88.6839 104.962L95.3417 104.559L101.894 124.499L97.9572 124.738L96.5875 120.346L89.3507 120.784L88.5205 125.309L84.5837 125.547ZM90.0344 117.198L95.4764 116.869L92.4187 107.147L91.8976 107.179L90.0344 117.198ZM106.074 124.246L105.387 112.899L101.74 113.12L101.558 110.109L105.205 109.889L105.044 107.226C104.984 106.241 105.227 105.442 105.771 104.828C106.333 104.194 107.086 103.848 108.032 103.791L111.795 103.563L111.977 106.574L109.488 106.724C108.948 106.757 108.695 107.063 108.73 107.642L108.853 109.668L112.616 109.44L112.798 112.451L109.035 112.679L109.721 124.026L106.074 124.246ZM115.787 123.659L115.524 119.317L123.002 112.298L122.974 111.835L115.39 112.294L115.208 109.284L126.787 108.583L127.049 112.925L119.572 119.943L119.6 120.407L127.705 119.916L127.887 122.927L115.787 123.659ZM135.773 122.856C134.75 122.918 133.823 122.8 132.991 122.502C132.159 122.184 131.481 121.702 130.957 121.056C130.452 120.389 130.17 119.564 130.11 118.579C130.051 117.595 130.233 116.761 130.656 116.077C131.098 115.372 131.723 114.831 132.533 114.453C133.361 114.054 134.316 113.822 135.397 113.756L139.333 113.518L139.284 112.708C139.243 112.032 138.998 111.495 138.548 111.096C138.096 110.678 137.407 110.497 136.481 110.553C135.574 110.608 134.911 110.861 134.493 111.312C134.074 111.745 133.817 112.293 133.721 112.957L130.295 112.031C130.482 111.284 130.809 110.596 131.274 109.967C131.758 109.318 132.413 108.785 133.24 108.367C134.085 107.928 135.125 107.672 136.36 107.597C138.251 107.482 139.776 107.865 140.933 108.744C142.09 109.623 142.723 110.96 142.832 112.754L143.156 118.11C143.191 118.689 143.478 118.962 144.019 118.929L145.177 118.859L145.359 121.869L142.927 122.017C142.213 122.06 141.614 121.922 141.13 121.602C140.646 121.283 140.386 120.834 140.351 120.255L140.349 120.226L139.799 120.259C139.736 120.496 139.581 120.815 139.334 121.217C139.086 121.6 138.682 121.954 138.12 122.278C137.559 122.603 136.776 122.796 135.773 122.856ZM136.231 119.865C137.254 119.803 138.067 119.473 138.67 118.875C139.291 118.256 139.573 117.474 139.515 116.529L139.498 116.239L135.822 116.462C135.146 116.502 134.624 116.679 134.256 116.992C133.887 117.305 133.719 117.722 133.75 118.243C133.782 118.764 134.01 119.176 134.435 119.48C134.861 119.783 135.459 119.912 136.231 119.865ZM148.025 121.708L146.799 101.445L150.447 101.224L151.673 121.487L148.025 121.708ZM155.715 121.243L154.846 106.885L158.493 106.664L159.362 121.022L155.715 121.243ZM156.568 105.096C155.912 105.136 155.339 104.957 154.85 104.561C154.381 104.163 154.125 103.617 154.083 102.922C154.041 102.227 154.229 101.654 154.647 101.203C155.085 100.75 155.631 100.504 156.288 100.464C156.963 100.423 157.536 100.602 158.005 101C158.475 101.397 158.73 101.944 158.772 102.638C158.814 103.333 158.626 103.906 158.208 104.357C157.79 104.809 157.243 105.055 156.568 105.096ZM163.404 120.778L162.178 100.515L165.825 100.294L166.503 111.497L167.024 111.465L171.451 105.88L176.198 105.593L169.989 112.942L177.298 119.937L172.609 120.221L167.227 114.823L166.706 114.854L167.051 120.557L163.404 120.778ZM179.743 119.789L178.517 99.5261L182.164 99.3054L183.39 119.568L179.743 119.789ZM191.914 119.459C190.891 119.521 189.964 119.403 189.133 119.105C188.3 118.787 187.622 118.305 187.099 117.659C186.594 116.992 186.311 116.167 186.252 115.182C186.192 114.198 186.374 113.364 186.797 112.68C187.239 111.975 187.865 111.434 188.675 111.056C189.503 110.657 190.457 110.425 191.538 110.359L195.475 110.121L195.426 109.311C195.385 108.635 195.139 108.098 194.689 107.699C194.238 107.281 193.549 107.1 192.622 107.156C191.715 107.211 191.053 107.464 190.635 107.916C190.215 108.348 189.958 108.896 189.863 109.56L186.436 108.634C186.624 107.887 186.95 107.199 187.416 106.57C187.899 105.921 188.555 105.388 189.382 104.97C190.227 104.531 191.267 104.275 192.502 104.2C194.393 104.086 195.917 104.468 197.074 105.347C198.232 106.226 198.864 107.563 198.973 109.358L199.297 114.713C199.332 115.292 199.62 115.565 200.16 115.532L201.318 115.462L201.5 118.473L199.069 118.62C198.355 118.663 197.755 118.525 197.271 118.205C196.787 117.886 196.528 117.437 196.493 116.858L196.491 116.829L195.941 116.862C195.878 117.099 195.723 117.418 195.476 117.82C195.228 118.203 194.823 118.557 194.262 118.881C193.7 119.206 192.918 119.399 191.914 119.459ZM192.372 116.468C193.395 116.406 194.208 116.076 194.811 115.478C195.432 114.859 195.714 114.077 195.657 113.132L195.639 112.842L191.963 113.065C191.288 113.106 190.766 113.282 190.397 113.595C190.029 113.908 189.86 114.325 189.892 114.846C189.923 115.367 190.152 115.779 190.577 116.083C191.002 116.386 191.601 116.515 192.372 116.468ZM204.167 118.311L203.298 103.953L206.888 103.736L206.986 105.357L207.507 105.326C207.684 104.734 208.006 104.288 208.472 103.989C208.957 103.689 209.528 103.518 210.184 103.479L211.921 103.374L212.117 106.616L210.322 106.724C209.396 106.78 208.649 107.077 208.081 107.615C207.512 108.134 207.258 108.905 207.32 109.927L207.814 118.091L204.167 118.311ZM215.644 117.617L214.775 103.259L218.423 103.038L219.291 117.396L215.644 117.617ZM216.497 101.47C215.841 101.509 215.269 101.331 214.78 100.934C214.31 100.537 214.055 99.9906 214.012 99.2958C213.97 98.6011 214.159 98.028 214.577 97.5766C215.014 97.1241 215.561 96.8779 216.217 96.8382C216.892 96.7973 217.465 96.9758 217.935 97.3735C218.404 97.7712 218.66 98.3174 218.702 99.0121C218.744 99.7068 218.556 100.28 218.138 100.731C217.72 101.183 217.173 101.429 216.497 101.47Z" fill="#384557"/>
<path d="M274.992 55.8735C286.271 56.7245 311.28 62.6305 321.084 79.4468" stroke="#64748B" stroke-width="7"/>
</svg>
