<svg width="66" height="23" viewBox="0 0 66 23" fill="none" xmlns="http://www.w3.org/2000/svg">
<path d="M2.10889 10.2826C1.27903 10.2826 0.606296 10.9553 0.606296 11.7852C0.606296 12.615 1.27903 13.2877 2.10889 13.2877L2.10889 10.2826ZM65.2785 12.8477C65.8653 12.2609 65.8653 11.3095 65.2785 10.7227L55.716 1.16024C55.1292 0.573442 54.1778 0.573442 53.591 1.16024C53.0042 1.74704 53.0042 2.69843 53.591 3.28522L62.091 11.7852L53.591 20.2851C53.0042 20.8719 53.0042 21.8233 53.591 22.4101C54.1778 22.9969 55.1292 22.9969 55.716 22.4101L65.2785 12.8477ZM2.10889 13.2877L64.216 13.2878L64.216 10.2826L2.10889 10.2826L2.10889 13.2877Z" fill="#FF7676"/>
</svg>
